<svg xmlns="http://www.w3.org/2000/svg" xmlns:xlink="http://www.w3.org/1999/xlink" width="38.28" height="38.281" viewBox="0 0 38.28 38.281">
  <defs>
    <filter id="Path_52" x="7.211" y="7.21" width="23.857" height="23.858" filterUnits="userSpaceOnUse">
      <feOffset dx="1" dy="1" input="SourceAlpha"/>
      <feGaussianBlur stdDeviation="1.5" result="blur"/>
      <feFlood flood-color="#fff"/>
      <feComposite operator="in" in2="blur"/>
      <feComposite in="SourceGraphic"/>
    </filter>
    <filter id="Path_53" x="11.033" y="11.033" width="16.213" height="16.213" filterUnits="userSpaceOnUse">
      <feOffset dx="1" dy="1" input="SourceAlpha"/>
      <feGaussianBlur stdDeviation="1.5" result="blur-2"/>
      <feFlood flood-color="#fff"/>
      <feComposite operator="in" in2="blur-2"/>
      <feComposite in="SourceGraphic"/>
    </filter>
    <filter id="Union_1" x="0" y="0" width="38.28" height="38.281" filterUnits="userSpaceOnUse">
      <feOffset dx="1" dy="1" input="SourceAlpha"/>
      <feGaussianBlur stdDeviation="1.5" result="blur-3"/>
      <feFlood flood-color="#fff"/>
      <feComposite operator="in" in2="blur-3"/>
      <feComposite in="SourceGraphic"/>
    </filter>
  </defs>
  <g id="Group_458" data-name="Group 458" transform="translate(-6511.074 -7337.5)">
    <g id="support_1_" data-name="support (1)" transform="translate(6514.925 7341.351)">
      <g id="Group_14" data-name="Group 14" transform="translate(-0.351 -0.351)">
        <g id="Group_13" data-name="Group 13" transform="translate(0 0)">
          <g transform="matrix(1, 0, 0, 1, -3.5, -3.5)" filter="url(#Path_52)">
            <path id="Path_52-2" data-name="Path 52" d="M142.445,133.934l-1.4-.468a5.923,5.923,0,0,0-.262-.636l.661-1.322a.5.5,0,0,0-.045-.516,7.485,7.485,0,0,0-1.539-1.539.5.5,0,0,0-.516-.045l-1.322.661a5.868,5.868,0,0,0-.636-.262l-.468-1.4a.5.5,0,0,0-.4-.333,7.433,7.433,0,0,0-2.177,0,.5.5,0,0,0-.4.333l-.468,1.4a5.865,5.865,0,0,0-.636.262l-1.322-.661a.5.5,0,0,0-.516.045,7.489,7.489,0,0,0-1.539,1.539.5.5,0,0,0-.045.516l.661,1.322a5.95,5.95,0,0,0-.262.636l-1.4.468a.5.5,0,0,0-.333.4,7.486,7.486,0,0,0,0,2.177.5.5,0,0,0,.333.4l1.4.468a5.864,5.864,0,0,0,.262.636l-.661,1.322a.5.5,0,0,0,.045.516A7.489,7.489,0,0,0,131,141.385a.5.5,0,0,0,.516.045l1.322-.661a5.957,5.957,0,0,0,.636.262l.468,1.4a.5.5,0,0,0,.4.333,7.484,7.484,0,0,0,2.177,0,.5.5,0,0,0,.4-.333l.468-1.4a5.926,5.926,0,0,0,.636-.262l1.322.661a.494.494,0,0,0,.516-.045,7.486,7.486,0,0,0,1.539-1.539.5.5,0,0,0,.045-.516l-.661-1.322a5.873,5.873,0,0,0,.262-.636l1.4-.468a.5.5,0,0,0,.333-.4,7.485,7.485,0,0,0,0-2.177A.5.5,0,0,0,142.445,133.934Zm-.609,2.129-1.346.449a.5.5,0,0,0-.318.328,4.921,4.921,0,0,1-.383.931.5.5,0,0,0-.007.457l.633,1.267c-.134.164-.278.322-.433.478s-.313.3-.478.433l-1.267-.634a.493.493,0,0,0-.457.008,4.915,4.915,0,0,1-.93.383.5.5,0,0,0-.328.318l-.449,1.346a6.513,6.513,0,0,1-1.288,0l-.449-1.346a.5.5,0,0,0-.328-.318,4.919,4.919,0,0,1-.93-.383.493.493,0,0,0-.457-.008l-1.267.634c-.164-.135-.322-.278-.478-.433s-.3-.313-.433-.478l.633-1.267a.5.5,0,0,0-.007-.457,4.923,4.923,0,0,1-.383-.931.5.5,0,0,0-.318-.328l-1.346-.449a6.562,6.562,0,0,1,0-1.288l1.346-.449a.5.5,0,0,0,.318-.328,4.921,4.921,0,0,1,.383-.93.5.5,0,0,0,.007-.457l-.634-1.267c.135-.164.278-.322.433-.478s.313-.3.478-.433l1.267.633a.5.5,0,0,0,.457-.007,4.922,4.922,0,0,1,.93-.384.5.5,0,0,0,.328-.318l.449-1.346a6.517,6.517,0,0,1,1.288,0l.449,1.346a.5.5,0,0,0,.328.318,4.924,4.924,0,0,1,.93.384.5.5,0,0,0,.457.007l1.267-.633c.164.134.322.278.478.433s.3.313.433.478l-.634,1.267a.5.5,0,0,0,.007.457,4.915,4.915,0,0,1,.384.93.5.5,0,0,0,.318.328l1.346.449A6.562,6.562,0,0,1,141.835,136.063Z" transform="translate(-117.29 -117.28)" fill="#0096f5"/>
          </g>
          <g transform="matrix(1, 0, 0, 1, -3.5, -3.5)" filter="url(#Path_53)">
            <path id="Path_53-2" data-name="Path 53" d="M199.874,196.267a3.607,3.607,0,1,0,3.607,3.607A3.607,3.607,0,0,0,199.874,196.267Zm0,6.183a2.576,2.576,0,1,1,2.576-2.576A2.576,2.576,0,0,1,199.874,202.45Z" transform="translate(-181.73 -181.73)" fill="#57606f"/>
          </g>
          <g transform="matrix(1, 0, 0, 1, -3.5, -3.5)" filter="url(#Union_1)">
            <path id="Union_1-2" data-name="Union 1" d="M12.2,29.281a.973.973,0,0,1-.84-.488H6.832A4.4,4.4,0,0,1,2.439,24.4,2.443,2.443,0,0,1,0,21.96V15.128a2.442,2.442,0,0,1,1.963-2.392A12.932,12.932,0,0,1,14.64,0,12.932,12.932,0,0,1,27.317,12.736a2.443,2.443,0,0,1,1.963,2.392V21.96A2.443,2.443,0,0,1,26.84,24.4H23.912a.977.977,0,0,1-.824-.454.948.948,0,0,1-.366-.749V13.689a.952.952,0,0,1,.872-.948.978.978,0,0,1,.319-.054h.21A9.73,9.73,0,0,0,14.64,3.229a9.73,9.73,0,0,0-9.483,9.458h.21a.978.978,0,0,1,.319.054.952.952,0,0,1,.871.948V23.2a.948.948,0,0,1-.366.749.98.98,0,0,1-.568.419,1.429,1.429,0,0,0,1.409,1.208h4.411a.948.948,0,0,1,.818-.476h4.279a.953.953,0,0,1,.947.868.973.973,0,0,1,.079.386V28.3a.977.977,0,0,1-.976.977Zm.063-1.329h4.279v-1.6H12.262Zm-5.229-.476h4.191V26.84H6.832A2.442,2.442,0,0,1,4.392,24.4H3.715A3.332,3.332,0,0,0,7.033,27.476ZM26.525,23.2a1.428,1.428,0,0,0,1.426-1.426V15.115a1.428,1.428,0,0,0-1.426-1.426H23.912V23.2Zm-25.2-8.082v6.656A1.427,1.427,0,0,0,2.755,23.2H5.368V13.689H2.755A1.426,1.426,0,0,0,1.329,15.115Zm24.035-2.428h.672A11.642,11.642,0,0,0,14.64,1.329a11.642,11.642,0,0,0-11.4,11.359h.673A10.975,10.975,0,0,1,14.64,1.951,10.975,10.975,0,0,1,25.364,12.688Z" transform="translate(3.5 3.5)" fill="#57606f"/>
          </g>
        </g>
      </g>
    </g>
  </g>
</svg>
