<svg xmlns="http://www.w3.org/2000/svg" width="29.026" height="26.044" viewBox="0 0 29.026 26.044">
  <path id="Vector" d="M24.662,8.67a4.352,4.352,0,0,0-4.091,2.9H1.451a1.451,1.451,0,0,0,0,2.9h19.12a4.352,4.352,0,1,0,4.091-5.8Zm0,5.8a1.451,1.451,0,1,1,1.026-.425A1.451,1.451,0,0,1,24.662,14.473ZM1.451,5.769H3.163a4.352,4.352,0,0,0,8.182,0H27.563a1.451,1.451,0,1,0,0-2.9H11.344a4.352,4.352,0,0,0-8.182,0H1.451a1.451,1.451,0,1,0,0,2.9Zm5.8-2.9a1.451,1.451,0,1,1-1.026.425A1.451,1.451,0,0,1,7.253,2.867Zm20.31,17.408H17.147a4.352,4.352,0,0,0-8.182,0H1.451a1.451,1.451,0,0,0,0,2.9H8.965a4.352,4.352,0,0,0,8.182,0H27.563a1.451,1.451,0,1,0,0-2.9Zm-14.507,2.9a1.451,1.451,0,1,1,1.026-.425A1.451,1.451,0,0,1,13.056,23.177Z" fill="#f1f1f1"/>
</svg>
