<svg id="Layer_1" data-name="Layer 1" xmlns="http://www.w3.org/2000/svg" viewBox="0 0 326.22 357.11"><defs><style>.cls-1{fill:#0096f5;}</style></defs><title>logo tezal</title><path class="cls-1" d="M402.13,71.09H114.38A11,11,0,0,0,103.59,80L87.12,163.63a11,11,0,0,0,10.79,13.12h94a6.9,6.9,0,0,1,6.78,8.16L173.47,320.79a6.89,6.89,0,0,0,6.78,8.15h68.26a6.9,6.9,0,0,1,6.77,8.19L239.36,420.8a6.21,6.21,0,0,0,11.16,4.76l99.92-140.41a6.9,6.9,0,0,0-5.62-10.9H297.89a6.91,6.91,0,0,1-6.79-8.16l15.51-83.69a6.91,6.91,0,0,1,6.78-5.65h72.28a11,11,0,0,0,10.79-8.87l16.46-83.67A11,11,0,0,0,402.13,71.09Z" transform="translate(-86.91 -71.09)"/></svg>