<svg xmlns="http://www.w3.org/2000/svg" xmlns:xlink="http://www.w3.org/1999/xlink" width="35.883" height="33.917" viewBox="0 0 35.883 33.917">
  <defs>
    <filter id="Path_61" x="23.285" y="10.046" width="12.598" height="13.824" filterUnits="userSpaceOnUse">
      <feOffset dx="1" dy="1" input="SourceAlpha"/>
      <feGaussianBlur stdDeviation="1.5" result="blur"/>
      <feFlood flood-color="#fff"/>
      <feComposite operator="in" in2="blur"/>
      <feComposite in="SourceGraphic"/>
    </filter>
    <filter id="Path_62" x="0" y="0" width="32.324" height="33.917" filterUnits="userSpaceOnUse">
      <feOffset dx="1" dy="1" input="SourceAlpha"/>
      <feGaussianBlur stdDeviation="1.5" result="blur-2"/>
      <feFlood flood-color="#fff"/>
      <feComposite operator="in" in2="blur-2"/>
      <feComposite in="SourceGraphic"/>
    </filter>
    <filter id="Path_63" x="9.058" y="11.917" width="21.97" height="10.083" filterUnits="userSpaceOnUse">
      <feOffset dx="1" dy="1" input="SourceAlpha"/>
      <feGaussianBlur stdDeviation="1.5" result="blur-3"/>
      <feFlood flood-color="#fff"/>
      <feComposite operator="in" in2="blur-3"/>
      <feComposite in="SourceGraphic"/>
    </filter>
  </defs>
  <g id="Group_461" data-name="Group 461" transform="translate(-6511.209 -7476.769)">
    <g id="Layer_x0020_1" transform="translate(6514.709 7480.269)">
      <g transform="matrix(1, 0, 0, 1, -3.5, -3.5)" filter="url(#Path_61)">
        <path id="Path_61-2" data-name="Path 61" d="M2621.069,1127.332l-2.987-2.105a.3.3,0,0,0-.042-.026.293.293,0,0,0-.042-.017.257.257,0,0,0-.042-.01l-.047,0-.038,0-.036.006-.036.011-.035.016-.032.02-.03.022-.027.026-.023.029a.25.25,0,0,0-.023.038.339.339,0,0,0-.016.041.367.367,0,0,0-.01.045.467.467,0,0,0,0,.051v4.211a.492.492,0,0,0,0,.051c0,.017.006.032.01.045a.38.38,0,0,0,.017.041.241.241,0,0,0,.023.038l.023.029.027.026.03.022a.208.208,0,0,0,.033.02l.035.016.036.011.036.006.039,0a.329.329,0,0,0,.046,0,.232.232,0,0,0,.042-.01.251.251,0,0,0,.042-.017.27.27,0,0,0,.042-.025l2.987-2.106.021-.016.02-.018.018-.021.014-.019a.326.326,0,0,0,.024-.039.342.342,0,0,0,.017-.043.288.288,0,0,0,.01-.045.418.418,0,0,0,0-.05v-.025l0-.023a.262.262,0,0,0-.011-.046.338.338,0,0,0-.016-.043c-.008-.014-.016-.028-.025-.04l-.016-.021-.017-.018C2621.1,1127.352,2621.085,1127.344,2621.069,1127.332Z" transform="translate(-2590.81 -1111.62)" fill="#0096f5" fill-rule="evenodd"/>
      </g>
      <g transform="matrix(1, 0, 0, 1, -3.5, -3.5)" filter="url(#Path_62)">
        <path id="Path_62-2" data-name="Path 62" d="M137.883,63.277a.54.54,0,0,0-.2-.068.548.548,0,0,0-.4.108.541.541,0,0,0-.139.159,11.364,11.364,0,1,1,0-11.374.539.539,0,0,0,.329.253.552.552,0,0,0,.213.014.542.542,0,0,0,.452-.4.552.552,0,0,0,.014-.213.54.54,0,0,0-.068-.2,12.45,12.45,0,1,0,0,12.46.54.54,0,0,0,.068-.2.549.549,0,0,0-.108-.4A.542.542,0,0,0,137.883,63.277Z" transform="translate(-111.33 -41.83)" fill="#57606f" fill-rule="evenodd"/>
      </g>
      <g transform="matrix(1, 0, 0, 1, -3.5, -3.5)" filter="url(#Path_63)">
        <path id="Path_63-2" data-name="Path 63" d="M1088.922,1326.17a.548.548,0,0,0-.208.041.542.542,0,0,0-.175.118.537.537,0,0,0-.159.384.543.543,0,0,0,.041.208.551.551,0,0,0,.293.293.544.544,0,0,0,.208.041h12.428v-1.084Z" transform="translate(-1075.82 -1310.75)" fill="#0096f5" fill-rule="evenodd"/>
      </g>
    </g>
  </g>
</svg>
