<svg xmlns="http://www.w3.org/2000/svg" width="26.286" height="23.549" viewBox="0 0 26.286 23.549">
  <g id="Group_456" data-name="Group 456" transform="translate(-6515.739 -7255.629)">
    <g id="caution" transform="translate(6514 7229.495)">
      <g id="Group_313" data-name="Group 313" transform="translate(1.738 8.557)">
        <path id="Path_495" data-name="Path 495" d="M25.894,36.728,15.683,19.044a2.932,2.932,0,0,0-5.078,0L.393,36.728a2.932,2.932,0,0,0,2.539,4.4H23.355a2.932,2.932,0,0,0,2.539-4.4Zm-.944,2.387a1.824,1.824,0,0,1-1.6.921H2.933a1.842,1.842,0,0,1-1.6-2.763L11.548,19.588a1.842,1.842,0,0,1,3.191,0L24.95,37.273a1.824,1.824,0,0,1,0,1.842Z" transform="translate(0 0)" fill="#57606f"/>
        <path id="Path_496" data-name="Path 496" d="M146.388,102.736a1.9,1.9,0,0,0-1.894,1.894v5.528a1.894,1.894,0,0,0,3.789,0V104.63A1.9,1.9,0,0,0,146.388,102.736Zm.8,7.422a.8.8,0,0,1-1.609,0V104.63a.8.8,0,0,1,1.609,0Z" transform="translate(-133.244 -78.529)" fill="#0096f5"/>
        <path id="Path_497" data-name="Path 497" d="M146.381,232.816a1.895,1.895,0,1,0,1.894,1.895h0A1.9,1.9,0,0,0,146.381,232.816Zm0,2.7a.8.8,0,1,1,.8-.8h0a.806.806,0,0,1-.8.805Z" transform="translate(-133.237 -198.482)" fill="#0096f5"/>
      </g>
    </g>
  </g>
</svg>
