<svg xmlns="http://www.w3.org/2000/svg" width="37.274" height="37.274" viewBox="0 0 37.274 37.274">
  <path id="qr-code" d="M.164,3.659A1.092,1.092,0,0,1-.928,4.751,1.092,1.092,0,0,1-2.02,3.659V-.928A1.092,1.092,0,0,1-.928-2.02H3.659A1.092,1.092,0,0,1,4.751-.928,1.092,1.092,0,0,1,3.659.164H.164ZM15.234,27.1a1.092,1.092,0,1,1,0-2.184h.946a1.092,1.092,0,0,1,0,2.184Zm.8-14.56a1.092,1.092,0,1,1-2.184,0v-.946a1.092,1.092,0,1,1,2.184,0Zm6.7,12.231a1.092,1.092,0,1,1,0-2.184h.946a1.092,1.092,0,1,1,0,2.184ZM.2,17.709H5.282a1.08,1.08,0,0,0-.022.218V21.2a1.092,1.092,0,0,0,2.184,0V17.928a1.08,1.08,0,0,0-.022-.218h9.632v1.238H11.3a1.092,1.092,0,1,0,0,2.184h6.843a1.092,1.092,0,0,0,1.092-1.092v-2.33h4.077v3.2a1.092,1.092,0,1,0,2.184,0v-3.2h7.535a1.092,1.092,0,0,0,0-2.184H28.047V13.414h1.092a1.092,1.092,0,1,0,0-2.184h-5.46a1.092,1.092,0,0,0,0,2.184h2.184v2.111H19.238V12.686a1.092,1.092,0,1,0-2.184,0v2.839H.2a1.092,1.092,0,0,0,0,2.184Zm18.892-13.4a1.092,1.092,0,0,1,2.184,0v5.751a1.092,1.092,0,1,1-2.184,0Zm-6.479.437h2.475V4.314a1.092,1.092,0,0,1,2.184,0v3.64a1.092,1.092,0,0,1-2.184,0V6.935H12.613v.51a1.092,1.092,0,0,1-2.184,0V4.314a1.092,1.092,0,0,1,2.184,0ZM3.877,13.341a1.092,1.092,0,0,1,0-2.184h8.081a1.092,1.092,0,1,1,0,2.184ZM27.683,27.829v1.092a1.092,1.092,0,0,0,2.184,0V22.369a1.092,1.092,0,0,0-2.184,0v3.276h-3.64a1.092,1.092,0,0,0,0,2.184ZM16.545,30.013h3.276a1.092,1.092,0,0,0,1.092-1.092V23.315a1.092,1.092,0,0,0-2.184,0v4.514H16.545a1.092,1.092,0,1,0,0,2.184ZM10.5,23.388a1.092,1.092,0,1,1,2.184,0v3.2a1.092,1.092,0,0,1-2.184,0Zm-6.625-.146H8.464a1.092,1.092,0,0,1,1.092,1.092v4.586a1.092,1.092,0,0,1-1.092,1.092H3.877a1.092,1.092,0,0,1-1.092-1.092V24.334A1.092,1.092,0,0,1,3.877,23.242Zm3.494,2.184h-2.4v2.4h2.4Zm17.4-22.2h4.586A1.092,1.092,0,0,1,30.45,4.314V8.9a1.092,1.092,0,0,1-1.092,1.092H24.771A1.092,1.092,0,0,1,23.679,8.9V4.314A1.092,1.092,0,0,1,24.771,3.222Zm3.494,2.184h-2.4v2.4h2.4ZM3.877,3.222A1.092,1.092,0,0,0,2.785,4.314V8.9A1.092,1.092,0,0,0,3.877,9.992H8.464A1.092,1.092,0,0,0,9.556,8.9V4.314A1.092,1.092,0,0,0,8.464,3.222ZM7.372,5.406v2.4h-2.4v-2.4Zm25.7,24.17a1.092,1.092,0,1,1,2.184,0v4.586a1.092,1.092,0,0,1-1.092,1.092H29.576a1.092,1.092,0,1,1,0-2.184h3.494Zm-35.09,0v4.586A1.092,1.092,0,0,0-.928,35.254H3.659a1.092,1.092,0,1,0,0-2.184H.165V29.576A1.092,1.092,0,0,0-.928,28.484,1.092,1.092,0,0,0-2.02,29.576ZM35.255,3.659V-.928A1.092,1.092,0,0,0,34.163-2.02H29.576A1.092,1.092,0,0,0,28.484-.928,1.092,1.092,0,0,0,29.576.164h3.494V3.659a1.092,1.092,0,1,0,2.184,0Zm0,0" transform="translate(2.02 2.02)" fill="#0095f4" fill-rule="evenodd"/>
</svg>
