<svg xmlns="http://www.w3.org/2000/svg" width="28.868" height="26.063" viewBox="0 0 28.868 26.063">
  <g id="Group_457" data-name="Group 457" transform="translate(-6514.895 -7299.08)">
    <g id="Policy" transform="translate(6514.895 7299.08)">
      <path id="Path_79" data-name="Path 79" d="M25.823,0H7.156A2.927,2.927,0,0,0,4.218,2.905L4.1,19.343H.455A.474.474,0,0,0,0,19.83v2.262a3.964,3.964,0,0,0,3.74,3.945v.027h15.72v-.031c.117,0,.188.031.268.031h.011a3.952,3.952,0,0,0,3.928-3.972V7.714h4.746a.479.479,0,0,0,.455-.492V3.071A3.066,3.066,0,0,0,25.823,0ZM3.944,25.129h0A3.03,3.03,0,0,1,.934,22.091V20.278H15.778v1.805a3.957,3.957,0,0,0,1.155,2.808,1.679,1.679,0,0,1,.246.237Zm18.788-3.038a3.019,3.019,0,0,1-2.994,3.038h-.01a3.037,3.037,0,0,1-3.015-3.045V19.83a.484.484,0,0,0-.468-.486H5.033l.12-16.434a1.991,1.991,0,0,1,2-1.974h16.46a3.19,3.19,0,0,0-.885,2.149Zm5.2-19.011v3.7H23.667v-3.7A2.165,2.165,0,0,1,25.81.935h.013a2.131,2.131,0,0,1,2.11,2.141Zm0,0" transform="translate(0.001)" fill="#57606f"/>
      <path id="Path_80" data-name="Path 80" d="M164.449,61.951l2.41,1.648a.46.46,0,0,0,.523,0l2.4-1.647a3.631,3.631,0,0,0,1.451-2.77V55.847a.457.457,0,0,0-.249-.42l-3.67-1.805a.459.459,0,0,0-.409,0l-3.663,1.8a.456.456,0,0,0-.249.42v3.339A3.631,3.631,0,0,0,164.449,61.951Zm-.517-5.817,3.185-1.571,3.185,1.576v3.043a2.694,2.694,0,0,1-1.044,2l-2.146,1.468-2.138-1.468a2.693,2.693,0,0,1-1.041-2Zm0,0" transform="translate(-153.471 -50.443)" fill="#0096f5"/>
      <path id="Path_81" data-name="Path 81" d="M202.618,118.787a.467.467,0,0,0,.331.14h0a.468.468,0,0,0,.331-.138l1.86-1.86a.468.468,0,0,0-.661-.662l-1.528,1.527-.611-.617a.468.468,0,1,0-.664.659Zm0,0" transform="translate(-189.764 -109.343)" fill="#0096f5"/>
      <path id="Path_82" data-name="Path 82" d="M144.688,248h-11.22a.468.468,0,0,0,0,.935h11.22a.468.468,0,1,0,0-.935Zm0,0" transform="translate(-125.228 -233.507)" fill="#57606f"/>
      <path id="Path_83" data-name="Path 83" d="M144.688,285h-11.22a.467.467,0,1,0,0,.935h11.22a.467.467,0,1,0,0-.935Zm0,0" transform="translate(-125.228 -268.345)" fill="#57606f"/>
    </g>
  </g>
</svg>
